<svg xmlns="http://www.w3.org/2000/svg" width="100" height="100" id="apple"><defs><clipPath id="a"><path fill="#dd6858" d="M245.153 469.695a270.102 272.271 0 1 1-540.204 0 270.102 272.271 0 1 1 540.204 0z" transform="matrix(-.1666 0 0 .16528 45.843 924.733)"></path></clipPath></defs><path fill="#dd6858" d="M5 50.002c0 24.854 20.147 45.001 45 45.001 24.852 0 44.998-20.147 44.998-45C94.998 25.148 74.852 5 50 5c-24.853 0-45 20.148-45 45.001z"></path><g transform="translate(3.846 -875.257) scale(.92308)"><rect width="65" height="46.621" x="17.5" y="974.346" fill="#ecf0f0" ry="3.202"></rect><path fill="#3b3c3d" d="M20.703 974.346a3.197 3.197 0 0 0-3.203 3.203v34.452h65V977.55a3.193 3.193 0 0 0-3.199-3.203H20.703z"></path><path fill="#4bb7c0" d="M20.416 976.735h59.172v32.874H20.416z"></path><path fill="#3b3c3d" d="M51.345 1016.203a1.345 1.345 0 1 1-2.69 0 1.345 1.345 0 0 1 2.69 0z"></path><path fill="#ecf0f0" d="M42.529 1020.163h14.943v7.483H42.529zM37.45 1028.992v.042c0 .744.6 1.344 1.345 1.344H61.21c.745 0 1.345-.6 1.345-1.344 0-.015-.004-.029-.005-.043H37.45z"></path><path fill="none" stroke="#ecf0f0" stroke-linecap="round" stroke-linejoin="round" stroke-width=".448" d="M42.845 1026.018c-.104.774-.75 1.35-1.585 1.41"></path><path fill="#ecf0f0" d="m41.299 1027.63 1.301-.85.699.85z"></path><path fill="none" stroke="#ecf0f0" stroke-linecap="round" stroke-linejoin="round" stroke-width=".448" d="M57.192 1026.018c.104.774.75 1.35 1.585 1.41"></path><path fill="#ecf0f0" d="m58.738 1027.63-1.301-.85-.699.85z"></path></g><path fill="#4bb7c0" d="M2.857 1028.791h115v30.714h-115z" clip-path="url(#a)" transform="translate(0 -952.362)"></path></svg>