<?xml version="1.0" encoding="iso-8859-1"?>
<!-- Uploaded to: SVG Repo, www.svgrepo.com, Generator: SVG Repo Mixer Tools -->
<svg version="1.1" id="Layer_1" xmlns="http://www.w3.org/2000/svg" xmlns:xlink="http://www.w3.org/1999/xlink" 
	 viewBox="0 0 512.001 512.001" xml:space="preserve">
<rect x="7.828" y="11.768" style="fill:#AACD4C;" width="236.352" height="488.465"/>
<polygon style="fill:#95C11F;" points="504.172,500.233 267.818,500.233 267.818,27.527 267.818,11.768 504.172,11.768 "/>
<path style="fill:#1D1D1B;" d="M259.99,3.94v39.392h-7.98V3.94H0v504.121h252.01v-39.392h7.98v39.392h252.01V3.94L259.99,3.94
	L259.99,3.94z M259.99,58.989v15.857h-7.98V58.989H259.99z M252.01,389.986v-15.858h7.98v15.858H252.01z M259.99,405.642v15.857
	h-7.98v-15.857H259.99z M252.01,358.472v-15.857h7.98v15.857H252.01z M252.01,326.957V311.1h7.98v15.857H252.01z M252.01,295.444
	v-15.858h7.98v15.858H252.01z M252.01,263.93v-15.857h7.98v15.857H252.01z M252.01,232.416v-15.857h7.98v15.857H252.01z
	 M252.01,200.902v-15.858h7.98v15.858H252.01z M252.01,169.389v-15.857h7.98v15.857H252.01z M252.01,137.874v-15.858h7.98v15.858
	H252.01z M252.01,106.36V90.503h7.98v15.857H252.01z M236.354,492.405H15.656V19.596h220.698v23.736h-15.807v15.656h15.807v15.858
	h-15.807v15.656h15.807v15.857h-15.807v15.656h15.807v15.858h-15.807v15.656h15.807v15.857h-15.807v15.656h15.807v15.858h-15.807
	v15.656h15.807v15.857h-15.807v15.656h15.807v15.857h-15.807v15.656h15.807v15.858h-15.807v15.656h15.807v15.857h-15.807v15.656
	h15.807v15.857h-15.807v15.656h15.807v15.858h-15.807v15.656h15.807v15.857h-15.807v15.656h15.807v15.858h-15.807v15.656h15.807
	V492.405z M252.01,453.014v-15.858h7.98v15.858H252.01z M496.344,492.405H275.646v-23.736h15.807v-15.656h-15.807v-15.858h15.807
	v-15.656h-15.807v-15.857h15.807v-15.656h-15.807v-15.858h15.807v-15.656h-15.807v-15.857h15.807v-15.656h-15.807V311.1h15.807
	v-15.656h-15.807v-15.858h15.807V263.93h-15.807v-15.857h15.807v-15.656h-15.807v-15.857h15.807v-15.656h-15.807v-15.858h15.807
	v-15.656h-15.807v-15.857h15.807v-15.656h-15.807v-15.858h15.807v-15.656h-15.807V90.503h15.807V74.847h-15.807V58.989h15.807
	V43.334h-15.807V19.596h220.698L496.344,492.405L496.344,492.405z"/>
<rect x="47.218" y="106.357" style="fill:#FFFFFF;" width="141.811" height="15.656"/>
<rect x="47.218" y="137.878" style="fill:#1D1D1B;" width="141.811" height="15.656"/>
<rect x="47.218" y="169.388" style="fill:#FFFFFF;" width="141.811" height="15.656"/>
<rect x="47.218" y="200.898" style="fill:#1D1D1B;" width="141.811" height="15.656"/>
<rect x="47.218" y="232.419" style="fill:#FFFFFF;" width="141.811" height="15.656"/>
<rect x="47.218" y="263.929" style="fill:#1D1D1B;" width="141.811" height="15.656"/>
<rect x="47.218" y="295.439" style="fill:#FFFFFF;" width="141.811" height="15.656"/>
<rect x="47.218" y="326.959" style="fill:#1D1D1B;" width="141.811" height="15.656"/>
<rect x="47.218" y="358.47" style="fill:#FFFFFF;" width="141.811" height="15.656"/>
<g>
	<rect x="47.218" y="389.99" style="fill:#1D1D1B;" width="141.811" height="15.656"/>
	<rect x="39.342" y="43.334" style="fill:#1D1D1B;" width="23.635" height="15.656"/>
</g>
<rect x="70.856" y="43.334" style="fill:#FFFFFF;" width="23.636" height="15.656"/>
<rect x="102.369" y="43.334" style="fill:#1D1D1B;" width="23.635" height="15.656"/>
<rect x="47.218" y="421.5" style="fill:#FFFFFF;" width="141.811" height="15.656"/>
<rect x="322.971" y="106.357" style="fill:#1D1D1B;" width="141.811" height="15.656"/>
<rect x="322.971" y="137.878" style="fill:#FFFFFF;" width="141.811" height="15.656"/>
<rect x="322.971" y="169.388" style="fill:#1D1D1B;" width="141.811" height="15.656"/>
<rect x="322.971" y="200.898" style="fill:#FFFFFF;" width="141.811" height="15.656"/>
<rect x="322.971" y="232.419" style="fill:#1D1D1B;" width="141.811" height="15.656"/>
<rect x="322.971" y="263.929" style="fill:#FFFFFF;" width="141.811" height="15.656"/>
<rect x="322.971" y="295.439" style="fill:#1D1D1B;" width="141.811" height="15.656"/>
<rect x="322.971" y="326.959" style="fill:#FFFFFF;" width="141.811" height="15.656"/>
<rect x="322.971" y="358.47" style="fill:#1D1D1B;" width="141.811" height="15.656"/>
<g>
	<rect x="322.971" y="389.99" style="fill:#FFFFFF;" width="141.811" height="15.656"/>
	<rect x="315.091" y="43.334" style="fill:#FFFFFF;" width="23.636" height="15.656"/>
</g>
<rect x="346.601" y="43.334" style="fill:#1D1D1B;" width="23.635" height="15.656"/>
<rect x="378.112" y="43.334" style="fill:#FFFFFF;" width="23.635" height="15.656"/>
<rect x="322.971" y="421.5" style="fill:#1D1D1B;" width="141.811" height="15.656"/>
</svg>